<svg width="508" height="308" viewBox="0 0 508 308" fill="none" xmlns="http://www.w3.org/2000/svg">
<path d="M421.212 107.717C422.284 102.196 422.845 96.4985 422.845 90.6729C422.845 40.5957 381.432 0 330.346 0C299.089 0 271.453 15.1978 254.71 38.4669C238.635 25.2382 217.903 17.271 195.272 17.271C144.677 17.271 103.57 57.0907 102.786 106.504H102.775C46.0133 106.504 0 151.61 0 207.252C0 262.894 46.0133 308 102.775 308H405.226C461.986 308 508 262.894 508 207.252C508 156.94 470.381 115.245 421.212 107.717Z" fill="url(#paint0_linear_11_10)" fill-opacity="0.5"/>
<path d="M416.304 106.763L415.311 111.872L420.455 112.659C467.295 119.831 503 159.52 503 207.252C503 260.039 459.319 303 405.226 303H102.775C48.6804 303 5 260.039 5 207.252C5 154.465 48.6804 111.504 102.775 111.504H102.786H107.707L107.785 106.583C108.525 59.9873 147.32 22.271 195.272 22.271C216.711 22.271 236.328 29.8147 251.533 42.3277L255.653 45.7179L258.769 41.3872C274.597 19.389 300.74 5 330.346 5C378.765 5 417.845 43.4506 417.845 90.6729C417.845 96.1769 417.315 101.555 416.304 106.763Z" stroke="url(#paint1_linear_11_10)" stroke-opacity="0.5" stroke-width="10"/>
<defs>
<linearGradient id="paint0_linear_11_10" x1="254" y1="0" x2="254" y2="308" gradientUnits="userSpaceOnUse">
<stop stop-color="#FF5B23"/>
<stop offset="1" stop-color="#FFACC6" stop-opacity="0.5"/>
</linearGradient>
<linearGradient id="paint1_linear_11_10" x1="254" y1="0" x2="254" y2="308" gradientUnits="userSpaceOnUse">
<stop stop-color="#FF5B23"/>
<stop offset="1" stop-color="#FFACC6"/>
</linearGradient>
</defs>
</svg>
