<svg width="315" height="191" viewBox="0 0 315 191" fill="none" xmlns="http://www.w3.org/2000/svg">
<path d="M256.276 65.8451L255.284 70.9533L260.428 71.7408C288.587 76.0525 310 99.9031 310 128.523C310 160.174 283.8 186 251.272 186H63.7284C31.1993 186 5 160.174 5 128.523C5 96.8722 31.1994 71.0462 63.7284 71.0462H63.7355H68.6568L68.7349 66.1255C69.1764 38.2998 92.3542 15.7103 121.084 15.7103C133.925 15.7103 145.665 20.2274 154.763 27.7151L158.883 31.1058L161.999 26.7746C171.467 13.6157 187.11 5 204.841 5C233.851 5 257.197 28.0291 257.197 56.229C257.197 59.5201 256.88 62.7338 256.276 65.8451Z" stroke="url(#paint0_linear_11_10)" stroke-width="10"/>
<defs>
<linearGradient id="paint0_linear_11_10" x1="157.5" y1="0" x2="157.5" y2="191" gradientUnits="userSpaceOnUse">
<stop stop-color="#FF5B23"/>
<stop offset="1" stop-color="#FFACC6"/>
</linearGradient>
</defs>
</svg>
