<svg width="508" height="308" viewBox="0 0 508 308" fill="none" xmlns="http://www.w3.org/2000/svg">
<path d="M416.304 106.763L415.311 111.872L420.455 112.659C467.295 119.831 503 159.52 503 207.252C503 260.039 459.319 303 405.226 303H102.775C48.6804 303 5 260.039 5 207.252C5 154.465 48.6804 111.504 102.775 111.504H102.786H107.707L107.785 106.583C108.525 59.9873 147.32 22.271 195.272 22.271C216.711 22.271 236.328 29.8147 251.533 42.3277L255.653 45.7179L258.769 41.3872C274.597 19.389 300.74 5 330.346 5C378.765 5 417.845 43.4506 417.845 90.6729C417.845 96.1769 417.315 101.555 416.304 106.763Z" stroke="url(#paint1_linear_11_10)" stroke-opacity="1" stroke-width="10"/>
<defs>
<linearGradient id="paint0_linear_11_10" x1="254" y1="0" x2="254" y2="308" gradientUnits="userSpaceOnUse">
<stop stop-color="#FF5B23"/>
<stop offset="1" stop-color="#FFACC6" stop-opacity="0.5"/>
</linearGradient>
<linearGradient id="paint1_linear_11_10" x1="254" y1="0" x2="254" y2="308" gradientUnits="userSpaceOnUse">
<stop stop-color="#FF5B23"/>
<stop offset="1" stop-color="#FFACC600"/>
</linearGradient>
</defs>
</svg>
