<!-- Created at https://app.haikei.app/ and used with permission  -->

<svg id="visual" viewBox="0 359 960 182" width="1500" xmlns="http://www.w3.org/2000/svg" version="1.1"><rect x="0" y="0" width="1500" fill="#1e293b00"></rect><path d="M0 400L32 395.3C64 390.7 128 381.3 192 374.8C256 368.3 320 364.7 384 370.8C448 377 512 393 576 396.5C640 400 704 391 768 382.7C832 374.3 896 366.7 928 362.8L960 359L960 541L928 541C896 541 832 541 768 541C704 541 640 541 576 541C512 541 448 541 384 541C320 541 256 541 192 541C128 541 64 541 32 541L0 541Z" fill="#ffacc6"></path><path d="M0 407L32 407.7C64 408.3 128 409.7 192 408.2C256 406.7 320 402.3 384 399.5C448 396.7 512 395.3 576 396.2C640 397 704 400 768 401.5C832 403 896 403 928 403L960 403L960 541L928 541C896 541 832 541 768 541C704 541 640 541 576 541C512 541 448 541 384 541C320 541 256 541 192 541C128 541 64 541 32 541L0 541Z" fill="#ff94a8"></path><path d="M0 464L32 456.8C64 449.7 128 435.3 192 434C256 432.7 320 444.3 384 448.2C448 452 512 448 576 447.2C640 446.3 704 448.7 768 446.5C832 444.3 896 437.7 928 434.3L960 431L960 541L928 541C896 541 832 541 768 541C704 541 640 541 576 541C512 541 448 541 384 541C320 541 256 541 192 541C128 541 64 541 32 541L0 541Z" fill="#ff7c84"></path><path d="M0 472L32 470.3C64 468.7 128 465.3 192 468.7C256 472 320 482 384 484.8C448 487.7 512 483.3 576 480.3C640 477.3 704 475.7 768 471.3C832 467 896 460 928 456.5L960 453L960 541L928 541C896 541 832 541 768 541C704 541 640 541 576 541C512 541 448 541 384 541C320 541 256 541 192 541C128 541 64 541 32 541L0 541Z" fill="#ff685a"></path><path d="M0 499L32 501.3C64 503.7 128 508.3 192 510.7C256 513 320 513 384 508.7C448 504.3 512 495.7 576 491C640 486.3 704 485.7 768 490.5C832 495.3 896 505.7 928 510.8L960 516L960 541L928 541C896 541 832 541 768 541C704 541 640 541 576 541C512 541 448 541 384 541C320 541 256 541 192 541C128 541 64 541 32 541L0 541Z" fill="#ff5b23"></path></svg>