<svg width="42" height="43" viewBox="0 0 42 43" fill="none" xmlns="http://www.w3.org/2000/svg">
<g clip-path="url(#clip0_57_108)">
<path fill-rule="evenodd" clip-rule="evenodd" d="M15.5654 0.738476C26.7661 -2.33395 38.2778 4.47228 41.2788 15.9361C44.2798 27.4035 37.6318 39.1893 26.4346 42.2617C15.2339 45.3342 3.72217 38.5279 0.721198 27.0641C-2.27978 15.5967 4.36475 3.8109 15.5654 0.738476Z" fill="#FBD433"/>
<path fill-rule="evenodd" clip-rule="evenodd" d="M14.3179 9.74916C15.7876 9.74916 16.9771 11.4673 16.9771 13.5879C16.9771 15.7086 15.7876 17.4267 14.3179 17.4267C12.8481 17.4267 11.6587 15.7086 11.6587 13.5879C11.6587 11.4673 12.8481 9.74916 14.3179 9.74916ZM9.7583 23.4876C15.4595 23.3056 27.1934 23.5891 32.2417 23.4736C32.2417 37.3905 9.7583 38.7203 9.7583 23.4876ZM27.6821 9.74916C29.1519 9.74916 30.3413 11.4673 30.3413 13.5879C30.3413 15.7086 29.1519 17.4267 27.6821 17.4267C26.2124 17.4267 25.0229 15.7086 25.0229 13.5879C25.0229 11.4673 26.2124 9.74916 27.6821 9.74916Z" fill="#141518"/>
<path fill-rule="evenodd" clip-rule="evenodd" d="M9.7583 23.4876C15.4595 22.9557 27.1934 23.2531 32.2417 23.4736C32.3066 28.4252 9.82666 28.3622 9.7583 23.4876Z" fill="white"/>
<path fill-rule="evenodd" clip-rule="evenodd" d="M13.1934 31.8266C16.9907 35.1894 24.0762 35.3224 28.335 31.8266C26.0176 29.1286 23.4883 29.0446 20.6821 31.1687C17.7905 28.7996 15.8525 28.7331 13.1934 31.8266Z" fill="#FF0000"/>
</g>
<defs>
<clipPath id="clip0_57_108">
<rect width="42" height="43" fill="white"/>
</clipPath>
</defs>
</svg>
