<svg width="62" height="55" viewBox="0 0 62 55" fill="none" xmlns="http://www.w3.org/2000/svg">
<path fill-rule="evenodd" clip-rule="evenodd" d="M62 27.5075C62 23.4163 56.8586 19.5413 48.9723 17.1338C50.7938 9.1273 49.9814 2.7593 46.4193 0.718724C45.5968 0.24125 44.6382 0.0150781 43.5887 0.0150781V2.82464C44.1689 2.82464 44.6382 2.94024 45.0317 3.15133C46.7523 4.13141 47.494 7.87079 46.9137 12.6807C46.7725 13.8618 46.5454 15.1083 46.2679 16.3799C43.7905 15.7768 41.0861 15.3093 38.2454 15.0078C36.54 12.6807 34.769 10.5647 32.988 8.71516C37.1051 4.89537 40.9701 2.80956 43.5988 2.80956V0C40.1224 0 35.5763 2.46779 30.9748 6.74998C26.3732 2.49292 21.8271 0.0502604 18.3507 0.0502604V2.85982C20.9644 2.85982 24.8444 4.93558 28.9666 8.72521C27.1956 10.5748 25.4297 12.6757 23.7495 15.0078C20.8937 15.3093 18.1893 15.7768 15.7119 16.3899C15.4193 15.1334 15.2074 13.9121 15.056 12.741C14.4606 7.9311 15.1973 4.19172 16.9027 3.19656C17.2811 2.97039 17.7756 2.86987 18.3558 2.86987V0.0653386C17.2962 0.0653386 16.3325 0.291511 15.5 0.768985C11.9479 2.80956 11.1507 9.1675 12.9873 17.1489C5.11621 19.5614 0 23.4264 0 27.5075C0 31.5987 5.14144 35.4738 13.0277 37.8813C11.2062 45.8878 12.0186 52.2558 15.5807 54.2964C16.4032 54.7738 17.3618 55 18.4264 55C21.9028 55 26.4489 52.5322 31.0505 48.25C35.652 52.5071 40.1981 54.9497 43.6745 54.9497C44.7341 54.9497 45.6978 54.7236 46.5303 54.2461C50.0824 52.2055 50.8796 45.8476 49.043 37.8662C56.8838 35.4638 62 31.5837 62 27.5075ZM36.762 27.5075C36.762 24.3311 34.1787 21.7527 30.9849 21.7527C27.7961 21.7527 25.2077 24.3261 25.2077 27.5075C25.2077 30.689 27.791 33.2624 30.9849 33.2624C34.1787 33.2573 36.762 30.684 36.762 27.5075ZM45.5464 19.109C45.0771 20.7324 44.4969 22.4061 43.841 24.0798C43.3213 23.0746 42.7814 22.0643 42.186 21.0591C41.6058 20.0539 40.9852 19.0688 40.3646 18.1139C42.1608 18.3802 43.8914 18.7069 45.5464 19.109ZM39.7591 32.5185C38.7752 34.2173 37.7611 35.8307 36.7116 37.3284C34.8296 37.4943 32.9224 37.5797 31 37.5797C29.0928 37.5797 27.1855 37.4893 25.3136 37.3385C24.2642 35.8407 23.2399 34.2424 22.256 32.5537C21.2974 30.9051 20.4245 29.2315 19.6273 27.5427C20.4093 25.854 21.2974 24.1702 22.2409 22.5217C23.2248 20.8229 24.2389 19.2095 25.2884 17.7118C27.1704 17.5459 29.0776 17.4605 31 17.4605C32.9072 17.4605 34.8145 17.5509 36.6864 17.7017C37.7358 19.1995 38.7601 20.7978 39.744 22.4865C40.7026 24.1351 41.5755 25.8087 42.3727 27.4975C41.5755 29.1812 40.7077 30.8649 39.7591 32.5185ZM43.841 30.88C44.5221 32.5688 45.1024 34.2525 45.5868 35.891C43.9318 36.2931 42.186 36.6348 40.3797 36.8962C41.0003 35.9262 41.6159 34.931 42.2012 33.9107C42.7764 32.9055 43.3213 31.8852 43.841 30.88ZM31.0252 44.3096C29.8496 43.1034 28.674 41.7564 27.5135 40.2837C28.6488 40.334 29.8143 40.3742 30.9899 40.3742C32.1756 40.3742 33.3512 40.3491 34.5016 40.2837C33.3613 41.7564 32.1857 43.1034 31.0252 44.3096ZM21.6253 36.8962C19.8291 36.6298 18.0985 36.3031 16.4435 35.901C16.9128 34.2776 17.493 32.604 18.1489 30.9303C18.6686 31.9355 19.2085 32.9457 19.8039 33.9509C20.3993 34.9612 21.0047 35.9412 21.6253 36.8962ZM30.9596 10.7004C32.1353 11.9067 33.3109 13.2537 34.4714 14.7263C33.3361 14.676 32.1706 14.6358 30.995 14.6358C29.8092 14.6358 28.6336 14.661 27.4832 14.7263C28.6235 13.2537 29.7992 11.9067 30.9596 10.7004ZM21.6102 18.1139C20.9896 19.0839 20.374 20.079 19.7887 21.0993C19.2085 22.1045 18.6636 23.1148 18.1439 24.12C17.4627 22.4312 16.8825 20.7475 16.3981 19.109C18.0581 18.717 19.8039 18.3802 21.6102 18.1139ZM10.1719 33.8755C5.69645 31.9757 2.80534 29.4828 2.80534 27.5075C2.80534 25.5323 5.7015 23.0243 10.1719 21.1395C11.2567 20.6721 12.4474 20.26 13.6735 19.868C14.395 22.3357 15.3436 24.904 16.5192 27.5327C15.3587 30.1512 14.4202 32.7045 13.7139 35.1622C12.4626 34.7702 11.2718 34.343 10.1719 33.8755ZM16.9733 51.8638C15.2528 50.8837 14.5111 47.1443 15.0913 42.3344C15.2326 41.1533 15.4596 39.9068 15.7371 38.6352C18.2145 39.2383 20.9189 39.7057 23.7596 40.0073C25.465 42.3344 27.236 44.4503 29.0171 46.2999C24.8949 50.1147 21.0299 52.2055 18.4012 52.2055C17.8311 52.1904 17.3517 52.0799 16.9733 51.8638ZM46.9491 42.2741C47.5444 47.084 46.8078 50.8234 45.1024 51.8185C44.724 52.0447 44.2295 52.1452 43.6493 52.1452C41.0356 52.1452 37.1556 50.0695 33.0334 46.2798C34.8044 44.4302 36.5703 42.3293 38.2505 39.9973C41.1063 39.6957 43.8107 39.2283 46.2881 38.6101C46.5807 39.8817 46.8078 41.103 46.9491 42.2741ZM51.813 33.8755C50.7282 34.343 49.5374 34.7551 48.3114 35.1471C47.5898 32.6793 46.6413 30.111 45.4657 27.4824C46.6261 24.8638 47.5646 22.3106 48.271 19.8529C49.5223 20.2449 50.708 20.6721 51.8231 21.1345C56.2985 23.0344 59.1896 25.5273 59.1896 27.5025C59.1795 29.4828 56.2884 31.9857 51.813 33.8755Z" fill="#00D8FF"/>
</svg>
