<svg width="322" height="726" viewBox="0 0 322 726" fill="none" xmlns="http://www.w3.org/2000/svg">
<path fill-rule="evenodd" clip-rule="evenodd" d="M322 565.017C322 653.927 249.919 726 161 726C72.0806 726 -3.31169e-06 653.927 5.74674e-07 565.017L1.82356e-05 160.983C2.21219e-05 72.0744 72.0807 -1.09243e-05 161 -7.03753e-06C249.919 -3.15074e-06 322 72.0744 322 160.983L322 565.017ZM258.863 363L258.863 565.017C258.863 619.06 215.049 662.87 161 662.87C106.951 662.87 63.1372 619.06 63.1373 565.017L63.1373 363L258.863 363Z" fill="url(#paint0_linear_340_20)" fill-opacity="0.2"/>
<defs>
<linearGradient id="paint0_linear_340_20" x1="-3.32188e-05" y1="692" x2="-3.92299e-05" y2="2.79707e-06" gradientUnits="userSpaceOnUse">
<stop stop-color="#FF5B23" stop-opacity="0"/>
<stop offset="0.244792" stop-color="#FF5B23"/>
<stop offset="0.703125" stop-color="#FFACC6"/>
<stop offset="1" stop-color="#FFACC6" stop-opacity="0"/>
</linearGradient>
</defs>
</svg>
