<svg width="67" height="67" viewBox="0 0 67 67" fill="none" xmlns="http://www.w3.org/2000/svg">
<path d="M16.7501 58.625C19.8337 58.625 22.3334 56.1253 22.3334 53.0417C22.3334 49.9581 19.8337 47.4583 16.7501 47.4583C13.6665 47.4583 11.1667 49.9581 11.1667 53.0417C11.1667 56.1253 13.6665 58.625 16.7501 58.625Z" stroke="#FC1111" stroke-opacity="0.5" stroke-width="2.75" stroke-linecap="round" stroke-linejoin="round"/>
<path d="M50.2501 19.5417C53.3337 19.5417 55.8334 17.0419 55.8334 13.9583C55.8334 10.8747 53.3337 8.375 50.2501 8.375C47.1665 8.375 44.6667 10.8747 44.6667 13.9583C44.6667 17.0419 47.1665 19.5417 50.2501 19.5417Z" stroke="#FC1111" stroke-opacity="0.5" stroke-width="2.75" stroke-linecap="round" stroke-linejoin="round"/>
<path d="M33.4999 53.0417H46.0624C48.6538 53.0417 51.1391 52.0122 52.9714 50.1799C54.8038 48.3475 55.8333 45.8622 55.8333 43.2708C55.8333 40.6794 54.8038 38.1942 52.9714 36.3618C51.1391 34.5294 48.6538 33.5 46.0624 33.5H23.7291C21.1377 33.5 18.6525 32.4706 16.8201 30.6382C14.9877 28.8058 13.9583 26.3205 13.9583 23.7292C13.9583 21.1378 14.9877 18.6525 16.8201 16.8201C18.6525 14.9878 21.1377 13.9583 23.7291 13.9583H33.4999" stroke="#FC1111" stroke-opacity="0.5" stroke-width="2.75" stroke-linecap="round" stroke-linejoin="round"/>
</svg>
