<svg width="79" height="44" viewBox="0 0 79 44" fill="none" xmlns="http://www.w3.org/2000/svg">
<g clip-path="url(#clip0_55_85)">
<path d="M0.707082 20.1447C2.74547 17.6618 4.95612 15.3261 7.32256 13.1549C16.5611 4.72856 27.0533 0.231929 37.9312 1.1066e-05C48.8091 -0.231907 59.7899 3.82022 70.2628 12.4463C73.1282 14.8277 75.8203 17.4112 78.3184 20.1769C78.7271 20.6282 78.9666 21.2078 78.996 21.8165C79.0253 22.4252 78.8426 23.0253 78.4791 23.5139C75.698 27.482 72.3737 31.0386 68.6041 34.0791C67.6869 34.8135 66.7504 35.5071 65.7946 36.1599L62.1108 32.2946C63.2102 31.5795 64.2903 30.7936 65.3253 29.9496C68.1777 27.6596 70.7423 25.0313 72.963 22.1224C71.0594 20.1299 69.0439 18.2478 66.9262 16.4855C57.5012 8.69694 47.5748 5.04423 38.0084 5.24393C28.4419 5.44364 19.1391 9.47644 10.8457 17.0395C9.15341 18.5878 7.54798 20.2288 6.03675 21.9549C8.7852 25.1605 11.9135 28.0183 15.3524 30.465C22.748 35.8239 31.6335 38.7257 40.76 38.7625C41.4029 38.7625 42.0908 38.7625 42.753 38.7045L47.369 43.4782C45.1881 43.813 42.9856 43.9874 40.7793 44C30.571 43.9819 20.6247 40.7603 12.3372 34.7877C7.90366 31.6234 3.94034 27.845 0.565643 23.5655C0.17622 23.0729 -0.0237154 22.4566 0.00224442 21.8287C0.0282042 21.2009 0.278332 20.6033 0.707082 20.1447ZM40.3742 7.67263C42.5678 7.68286 44.729 8.20421 46.6869 9.19548C48.6448 10.1868 50.3457 11.6208 51.6553 13.3842C52.9649 15.1476 53.8472 17.1921 54.2325 19.356C54.6177 21.5199 54.4954 23.744 53.8752 25.8524C53.5359 26.9828 53.0541 28.0652 52.4415 29.0735L60.645 37.7962C60.7089 37.8592 60.759 37.935 60.792 38.0186C60.8249 38.1021 60.8401 38.1917 60.8364 38.2815C60.8328 38.3713 60.8105 38.4593 60.7709 38.5399C60.7312 38.6206 60.6752 38.692 60.6064 38.7496L56.5754 42.4217C56.5121 42.4854 56.4361 42.535 56.3525 42.5675C56.2688 42.6 56.1793 42.6146 56.0897 42.6104C56.0001 42.6061 55.9123 42.5831 55.8321 42.5429C55.7519 42.5026 55.681 42.446 55.6239 42.3766L47.7033 33.8987C45.808 35.0505 43.6691 35.7398 41.459 35.911C39.249 36.0822 37.0297 35.7306 34.9803 34.8843C33.2682 34.1706 31.7128 33.1265 30.4028 31.8114V31.7792C28.7774 30.1289 27.5809 28.1041 26.9182 25.8825C26.2555 23.6609 26.1469 21.3103 26.602 19.0368C27.057 16.7633 28.0618 14.6365 29.5281 12.8427C30.9944 11.049 32.8776 9.64313 35.0124 8.74847C36.7217 8.03592 38.5551 7.67025 40.4064 7.67263H40.3742ZM48.3398 13.8313C47.2916 12.7839 46.0488 11.9523 44.6817 11.3833C41.931 10.258 38.8496 10.258 36.0989 11.3833C34.7355 11.9556 33.4955 12.7869 32.4472 13.8313C31.3997 14.8823 30.5695 16.1302 30.0042 17.5034C29.4525 18.8618 29.1686 20.3144 29.1684 21.781C29.1678 23.2633 29.4588 24.7312 30.0247 26.1008C30.5906 27.4704 31.4204 28.7148 32.4665 29.7628C33.5119 30.811 34.7532 31.6424 36.1194 32.2097C37.4856 32.777 38.95 33.069 40.4289 33.069C41.9078 33.069 43.3721 32.777 44.7383 32.2097C46.1046 31.6424 47.3458 30.811 48.3912 29.7628C49.4374 28.7148 50.2672 27.4704 50.8331 26.1008C51.399 24.7312 51.6899 23.2633 51.6893 21.781C51.6749 20.3095 51.369 18.8555 50.7893 17.5034C50.224 16.1302 49.3938 14.8823 48.3462 13.8313H48.3398ZM38.1369 14.6237C39.0784 14.6225 39.9991 14.9011 40.7825 15.4245C41.5658 15.9478 42.1766 16.6923 42.5375 17.5636C42.8984 18.435 42.9931 19.394 42.8097 20.3194C42.6264 21.2447 42.1731 22.0948 41.5074 22.7619C40.8417 23.4289 39.9934 23.8831 39.0699 24.0668C38.1465 24.2506 37.1894 24.1556 36.3198 23.794C35.4502 23.4324 34.7072 22.8204 34.185 22.0354C33.6627 21.2505 33.3846 20.3279 33.3859 19.3845C33.3859 18.1219 33.8864 16.9109 34.7774 16.0181C35.6684 15.1253 36.8769 14.6237 38.1369 14.6237Z" fill="#FFACC6"/>
</g>
<defs>
<clipPath id="clip0_55_85">
<rect width="79" height="44" fill="white"/>
</clipPath>
</defs>
</svg>
